<svg width="1200" height="360" viewBox="0 0 1200 360" fill="none" xmlns="http://www.w3.org/2000/svg">
  <defs>
    <linearGradient id="bg" x1="0" y1="0" x2="1200" y2="360" gradientUnits="userSpaceOnUse">
      <stop stop-color="#0A1020"/>
      <stop offset="1" stop-color="#101A33"/>
    </linearGradient>
    <linearGradient id="accent" x1="110" y1="74" x2="1090" y2="284" gradientUnits="userSpaceOnUse">
      <stop stop-color="#6B8CFF" stop-opacity="0.95"/>
      <stop offset="1" stop-color="#7EE0FF" stop-opacity="0.75"/>
    </linearGradient>
    <filter id="blur" x="0" y="0" width="1200" height="360" filterUnits="userSpaceOnUse">
      <feGaussianBlur stdDeviation="26"/>
    </filter>
  </defs>

  <rect width="1200" height="360" rx="28" fill="url(#bg)"/>
  <circle cx="980" cy="88" r="118" fill="#5B8CFF" fill-opacity="0.14" filter="url(#blur)"/>
  <circle cx="176" cy="272" r="146" fill="#7EE0FF" fill-opacity="0.08" filter="url(#blur)"/>

  <path d="M92 78H156" stroke="url(#accent)" stroke-width="3" stroke-linecap="round"/>
  <path d="M92 282C262 234 424 226 600 254C780 282 930 286 1110 224" stroke="#FFFFFF" stroke-opacity="0.09" stroke-width="1.5"/>
  <path d="M92 252C272 178 442 172 600 214C758 256 920 252 1110 148" stroke="url(#accent)" stroke-opacity="0.55" stroke-width="2.25"/>

  <text x="92" y="158" fill="#FFFFFF" font-family="Inter, Arial, sans-serif" font-size="56" font-weight="700" letter-spacing="-0.03em">Alejandro Navarro</text>
  <text x="92" y="206" fill="#D5DDF3" font-family="Inter, Arial, sans-serif" font-size="22" font-weight="500">
    Freelance Fullstack Software Engineer · Application Security · Technical Consulting
  </text>
  <text x="92" y="244" fill="#AAB7D6" font-family="Inter, Arial, sans-serif" font-size="17" font-weight="400">
    Secure, production-ready web applications and APIs
  </text>
</svg>
